<mxfile host="Electron" modified="2024-03-03T07:39:11.516Z" agent="Mozilla/5.0 (Windows NT 10.0; Win64; x64) AppleWebKit/537.36 (KHTML, like Gecko) draw.io/23.1.5 Chrome/120.0.6099.109 Electron/28.1.0 Safari/537.36" etag="SW8F1jLPx9wzi53HjIYG" version="23.1.5" type="device">
  <diagram name="ページ1" id="LE8fIzdrHe0wcv1LTvfw">
    <mxGraphModel dx="2474" dy="1480" grid="1" gridSize="10" guides="1" tooltips="1" connect="1" arrows="1" fold="1" page="1" pageScale="1" pageWidth="1600" pageHeight="1200" math="0" shadow="0">
      <root>
        <mxCell id="0" />
        <mxCell id="cFaB45KztUIKXS-_cTrr-4" value="背景" style="locked=1;" parent="0" visible="0" />
        <mxCell id="cFaB45KztUIKXS-_cTrr-5" value="" style="rounded=0;whiteSpace=wrap;html=1;strokeWidth=3;" parent="cFaB45KztUIKXS-_cTrr-4" vertex="1">
          <mxGeometry x="1" y="1" width="1595" height="1180" as="geometry" />
        </mxCell>
        <mxCell id="cFaB45KztUIKXS-_cTrr-6" value="" style="rounded=0;whiteSpace=wrap;html=1;fillColor=#B3B3B3;fontColor=#333333;strokeColor=#666666;" parent="cFaB45KztUIKXS-_cTrr-4" vertex="1">
          <mxGeometry width="1595" height="60" as="geometry" />
        </mxCell>
        <mxCell id="cFaB45KztUIKXS-_cTrr-7" value="&lt;font style=&quot;font-size: 48px;&quot;&gt;×&lt;/font&gt;" style="rounded=0;whiteSpace=wrap;html=1;" parent="cFaB45KztUIKXS-_cTrr-4" vertex="1">
          <mxGeometry x="1550" y="10" width="40" height="40" as="geometry" />
        </mxCell>
        <mxCell id="cFaB45KztUIKXS-_cTrr-8" value="" style="rounded=0;whiteSpace=wrap;html=1;" parent="cFaB45KztUIKXS-_cTrr-4" vertex="1">
          <mxGeometry x="830" y="670" width="120" height="60" as="geometry" />
        </mxCell>
        <mxCell id="cFaB45KztUIKXS-_cTrr-9" value="ウインドウ" style="locked=1;" parent="0" />
        <mxCell id="cFaB45KztUIKXS-_cTrr-10" value="" style="rounded=0;whiteSpace=wrap;html=1;strokeWidth=3;" parent="cFaB45KztUIKXS-_cTrr-9" vertex="1">
          <mxGeometry x="6" y="48" width="1545" height="1070" as="geometry" />
        </mxCell>
        <mxCell id="cFaB45KztUIKXS-_cTrr-11" value="" style="rounded=0;whiteSpace=wrap;html=1;fillColor=#B3B3B3;fontColor=#333333;strokeColor=#666666;" parent="cFaB45KztUIKXS-_cTrr-9" vertex="1">
          <mxGeometry x="11" y="48" width="1539" height="60" as="geometry" />
        </mxCell>
        <mxCell id="cFaB45KztUIKXS-_cTrr-12" value="&lt;font style=&quot;font-size: 48px;&quot;&gt;×&lt;/font&gt;" style="rounded=0;whiteSpace=wrap;html=1;" parent="cFaB45KztUIKXS-_cTrr-9" vertex="1">
          <mxGeometry x="1489" y="57" width="40" height="40" as="geometry" />
        </mxCell>
        <mxCell id="cFaB45KztUIKXS-_cTrr-14" value="名称未設定レイヤ" style="" parent="0" />
        <mxCell id="HvR4dSRWBfD3urc1JDpB-8" value="&lt;font style=&quot;font-size: 30px;&quot;&gt;登録前に下記の情報が正しいか確認をしてください&lt;/font&gt;" style="text;html=1;strokeColor=none;fillColor=none;align=left;verticalAlign=middle;whiteSpace=wrap;rounded=0;" parent="cFaB45KztUIKXS-_cTrr-14" vertex="1">
          <mxGeometry x="61" y="268" width="750" height="30" as="geometry" />
        </mxCell>
        <mxCell id="HvR4dSRWBfD3urc1JDpB-15" value="&lt;span style=&quot;font-size: 30px;&quot;&gt;送信&lt;/span&gt;" style="rounded=1;whiteSpace=wrap;html=1;" parent="cFaB45KztUIKXS-_cTrr-14" vertex="1">
          <mxGeometry x="1291" y="1038" width="210" height="60" as="geometry" />
        </mxCell>
        <mxCell id="HvR4dSRWBfD3urc1JDpB-16" value="&lt;span style=&quot;font-size: 30px;&quot;&gt;キャンセル&lt;/span&gt;" style="rounded=1;whiteSpace=wrap;html=1;" parent="cFaB45KztUIKXS-_cTrr-14" vertex="1">
          <mxGeometry x="1041" y="1038" width="210" height="60" as="geometry" />
        </mxCell>
        <mxCell id="rMlkWfYMhBXUC336Wd6b-3" value="&lt;span style=&quot;font-size: 30px;&quot;&gt;Upload&lt;/span&gt;" style="rounded=1;whiteSpace=wrap;html=1;fillColor=#FFFFFF;strokeWidth=3;" parent="cFaB45KztUIKXS-_cTrr-14" vertex="1">
          <mxGeometry x="1297" y="193" width="210" height="60" as="geometry" />
        </mxCell>
        <mxCell id="rMlkWfYMhBXUC336Wd6b-4" value="&lt;span style=&quot;font-size: 30px;&quot;&gt;政治資金収支報告書を指定してください&lt;/span&gt;" style="text;html=1;strokeColor=none;fillColor=none;align=left;verticalAlign=middle;whiteSpace=wrap;rounded=0;" parent="cFaB45KztUIKXS-_cTrr-14" vertex="1">
          <mxGeometry x="31" y="138" width="600" height="40" as="geometry" />
        </mxCell>
        <mxCell id="rMlkWfYMhBXUC336Wd6b-5" value="" style="rounded=0;whiteSpace=wrap;html=1;strokeWidth=3;" parent="cFaB45KztUIKXS-_cTrr-14" vertex="1">
          <mxGeometry x="61" y="193" width="1203" height="60" as="geometry" />
        </mxCell>
        <mxCell id="rMlkWfYMhBXUC336Wd6b-7" value="&lt;span style=&quot;font-size: 30px;&quot;&gt;報告年&lt;/span&gt;" style="rounded=0;whiteSpace=wrap;html=1;align=right;dashed=1;dashPattern=8 8;verticalAlign=bottom;" parent="cFaB45KztUIKXS-_cTrr-14" vertex="1">
          <mxGeometry x="111" y="375" width="290" height="46" as="geometry" />
        </mxCell>
        <mxCell id="rMlkWfYMhBXUC336Wd6b-8" value="&lt;span style=&quot;font-size: 30px;&quot;&gt;2022&lt;/span&gt;" style="rounded=0;whiteSpace=wrap;html=1;align=left;fillColor=#CCCCCC;" parent="cFaB45KztUIKXS-_cTrr-14" vertex="1">
          <mxGeometry x="421" y="377" width="330" height="48" as="geometry" />
        </mxCell>
        <mxCell id="rMlkWfYMhBXUC336Wd6b-9" value="&lt;span style=&quot;font-size: 30px;&quot;&gt;代表者名&lt;/span&gt;" style="rounded=0;whiteSpace=wrap;html=1;align=right;dashed=1;dashPattern=8 8;verticalAlign=bottom;" parent="cFaB45KztUIKXS-_cTrr-14" vertex="1">
          <mxGeometry x="111" y="445" width="290" height="46" as="geometry" />
        </mxCell>
        <mxCell id="rMlkWfYMhBXUC336Wd6b-10" value="&lt;span style=&quot;font-size: 30px;&quot;&gt;政治団体　太郎&lt;/span&gt;" style="rounded=0;whiteSpace=wrap;html=1;align=left;fillColor=#CCCCCC;" parent="cFaB45KztUIKXS-_cTrr-14" vertex="1">
          <mxGeometry x="421" y="447" width="880" height="48" as="geometry" />
        </mxCell>
        <mxCell id="rMlkWfYMhBXUC336Wd6b-11" value="&lt;span style=&quot;font-size: 30px;&quot;&gt;会計責任者名&lt;/span&gt;" style="rounded=0;whiteSpace=wrap;html=1;align=right;dashed=1;dashPattern=8 8;verticalAlign=bottom;" parent="cFaB45KztUIKXS-_cTrr-14" vertex="1">
          <mxGeometry x="111" y="515" width="290" height="46" as="geometry" />
        </mxCell>
        <mxCell id="rMlkWfYMhBXUC336Wd6b-12" value="&lt;span style=&quot;font-size: 30px;&quot;&gt;政治団体　花子&lt;/span&gt;" style="rounded=0;whiteSpace=wrap;html=1;align=left;fillColor=#CCCCCC;" parent="cFaB45KztUIKXS-_cTrr-14" vertex="1">
          <mxGeometry x="421" y="517" width="880" height="48" as="geometry" />
        </mxCell>
        <mxCell id="rMlkWfYMhBXUC336Wd6b-13" value="&lt;span style=&quot;font-size: 30px;&quot;&gt;主たる事務所の住所&lt;/span&gt;" style="rounded=0;whiteSpace=wrap;html=1;align=right;dashed=1;dashPattern=8 8;verticalAlign=bottom;" parent="cFaB45KztUIKXS-_cTrr-14" vertex="1">
          <mxGeometry x="108" y="585" width="290" height="46" as="geometry" />
        </mxCell>
        <mxCell id="rMlkWfYMhBXUC336Wd6b-14" value="&lt;span style=&quot;font-size: 30px;&quot;&gt;東京都千代田区霞ケ浦999番地&lt;/span&gt;" style="rounded=0;whiteSpace=wrap;html=1;align=left;verticalAlign=top;fillColor=#CCCCCC;" parent="cFaB45KztUIKXS-_cTrr-14" vertex="1">
          <mxGeometry x="418" y="587" width="880" height="151" as="geometry" />
        </mxCell>
        <mxCell id="rMlkWfYMhBXUC336Wd6b-15" value="&lt;span style=&quot;font-size: 30px;&quot;&gt;政治団体区分&lt;/span&gt;" style="rounded=0;whiteSpace=wrap;html=1;align=right;dashed=1;dashPattern=8 8;verticalAlign=bottom;" parent="cFaB45KztUIKXS-_cTrr-14" vertex="1">
          <mxGeometry x="107" y="762" width="290" height="46" as="geometry" />
        </mxCell>
        <mxCell id="rMlkWfYMhBXUC336Wd6b-16" value="&lt;span style=&quot;font-size: 30px;&quot;&gt;▼その他の政治団体&lt;/span&gt;" style="rounded=0;whiteSpace=wrap;html=1;align=left;fillColor=#CCCCCC;" parent="cFaB45KztUIKXS-_cTrr-14" vertex="1">
          <mxGeometry x="417" y="764" width="880" height="48" as="geometry" />
        </mxCell>
        <mxCell id="rMlkWfYMhBXUC336Wd6b-17" value="&lt;span style=&quot;font-size: 30px;&quot;&gt;政治資金管理団体の有無&lt;/span&gt;" style="rounded=0;whiteSpace=wrap;html=1;align=right;dashed=1;dashPattern=8 8;verticalAlign=bottom;" parent="cFaB45KztUIKXS-_cTrr-14" vertex="1">
          <mxGeometry x="41" y="827" width="360" height="46" as="geometry" />
        </mxCell>
        <mxCell id="rMlkWfYMhBXUC336Wd6b-19" value="&lt;span style=&quot;font-size: 30px;&quot;&gt;☑政治資金管理団体の有無&lt;/span&gt;" style="rounded=0;whiteSpace=wrap;html=1;align=left;dashed=1;dashPattern=8 8;verticalAlign=bottom;fillColor=#CCCCCC;" parent="cFaB45KztUIKXS-_cTrr-14" vertex="1">
          <mxGeometry x="421" y="827" width="500" height="46" as="geometry" />
        </mxCell>
        <mxCell id="rMlkWfYMhBXUC336Wd6b-20" value="&lt;span style=&quot;font-size: 30px;&quot;&gt;政治団体名&lt;/span&gt;" style="rounded=0;whiteSpace=wrap;html=1;align=right;dashed=1;dashPattern=8 8;verticalAlign=bottom;" parent="cFaB45KztUIKXS-_cTrr-14" vertex="1">
          <mxGeometry x="111" y="316" width="290" height="46" as="geometry" />
        </mxCell>
        <mxCell id="rMlkWfYMhBXUC336Wd6b-21" value="&lt;span style=&quot;font-size: 30px;&quot;&gt;ちゃらんぽらん政治団体&lt;/span&gt;" style="rounded=0;whiteSpace=wrap;html=1;align=left;fillColor=#CCCCCC;" parent="cFaB45KztUIKXS-_cTrr-14" vertex="1">
          <mxGeometry x="421" y="318" width="880" height="48" as="geometry" />
        </mxCell>
        <mxCell id="I98U6csfKiKjN-V1iLkN-0" value="&lt;span style=&quot;font-size: 30px;&quot;&gt;☑一致&lt;/span&gt;" style="rounded=0;whiteSpace=wrap;html=1;align=left;dashed=1;dashPattern=8 8;verticalAlign=bottom;" parent="cFaB45KztUIKXS-_cTrr-14" vertex="1">
          <mxGeometry x="1321" y="587" width="160" height="46" as="geometry" />
        </mxCell>
        <mxCell id="I98U6csfKiKjN-V1iLkN-1" value="&lt;span style=&quot;font-size: 30px;&quot;&gt;☑一致&lt;/span&gt;" style="rounded=0;whiteSpace=wrap;html=1;align=left;dashed=1;dashPattern=8 8;verticalAlign=bottom;" parent="cFaB45KztUIKXS-_cTrr-14" vertex="1">
          <mxGeometry x="1321" y="517" width="160" height="46" as="geometry" />
        </mxCell>
        <mxCell id="I98U6csfKiKjN-V1iLkN-2" value="&lt;span style=&quot;font-size: 30px;&quot;&gt;☑一致&lt;/span&gt;" style="rounded=0;whiteSpace=wrap;html=1;align=left;dashed=1;dashPattern=8 8;verticalAlign=bottom;" parent="cFaB45KztUIKXS-_cTrr-14" vertex="1">
          <mxGeometry x="1321" y="446" width="160" height="46" as="geometry" />
        </mxCell>
        <mxCell id="I98U6csfKiKjN-V1iLkN-3" value="&lt;span style=&quot;font-size: 30px;&quot;&gt;☑一致&lt;/span&gt;" style="rounded=0;whiteSpace=wrap;html=1;align=left;dashed=1;dashPattern=8 8;verticalAlign=bottom;" parent="cFaB45KztUIKXS-_cTrr-14" vertex="1">
          <mxGeometry x="1321" y="317" width="160" height="46" as="geometry" />
        </mxCell>
        <mxCell id="I98U6csfKiKjN-V1iLkN-4" value="&lt;span style=&quot;font-size: 30px;&quot;&gt;結びつける登録済の政治団体&lt;/span&gt;" style="rounded=0;whiteSpace=wrap;html=1;align=right;dashed=1;dashPattern=8 8;verticalAlign=top;" parent="cFaB45KztUIKXS-_cTrr-14" vertex="1">
          <mxGeometry x="111" y="906" width="290" height="94" as="geometry" />
        </mxCell>
        <mxCell id="I98U6csfKiKjN-V1iLkN-5" value="&lt;span style=&quot;font-size: 30px;&quot;&gt;ちゃらんぽらん政治団体&lt;/span&gt;" style="rounded=0;whiteSpace=wrap;html=1;align=left;fillColor=#CCCCCC;" parent="cFaB45KztUIKXS-_cTrr-14" vertex="1">
          <mxGeometry x="421" y="965" width="880" height="48" as="geometry" />
        </mxCell>
        <mxCell id="I98U6csfKiKjN-V1iLkN-6" value="&lt;span style=&quot;font-size: 30px;&quot;&gt;1111333&lt;/span&gt;" style="rounded=0;whiteSpace=wrap;html=1;align=left;fillColor=#CCCCCC;" parent="cFaB45KztUIKXS-_cTrr-14" vertex="1">
          <mxGeometry x="421" y="908" width="360" height="48" as="geometry" />
        </mxCell>
        <mxCell id="R5iGpdARVRINriSJcsZn-0" value="&lt;span style=&quot;font-size: 30px;&quot;&gt;検索&lt;/span&gt;" style="rounded=1;whiteSpace=wrap;html=1;fillColor=#FFFFFF;strokeWidth=3;" parent="cFaB45KztUIKXS-_cTrr-14" vertex="1">
          <mxGeometry x="1088" y="900" width="210" height="45" as="geometry" />
        </mxCell>
        <mxCell id="wIPo2JrS_2pkTnIwPTIa-0" value="&lt;span style=&quot;font-size: 30px;&quot;&gt;☑一致&lt;/span&gt;" style="rounded=0;whiteSpace=wrap;html=1;align=left;dashed=1;dashPattern=8 8;verticalAlign=bottom;" parent="cFaB45KztUIKXS-_cTrr-14" vertex="1">
          <mxGeometry x="1321" y="767" width="160" height="46" as="geometry" />
        </mxCell>
        <mxCell id="wIPo2JrS_2pkTnIwPTIa-1" value="&lt;span style=&quot;font-size: 30px;&quot;&gt;☑一致&lt;/span&gt;" style="rounded=0;whiteSpace=wrap;html=1;align=left;dashed=1;dashPattern=8 8;verticalAlign=bottom;" parent="cFaB45KztUIKXS-_cTrr-14" vertex="1">
          <mxGeometry x="1321" y="837" width="160" height="46" as="geometry" />
        </mxCell>
        <mxCell id="wIPo2JrS_2pkTnIwPTIa-2" value="&lt;span style=&quot;font-size: 30px;&quot;&gt;☑不存在&lt;/span&gt;" style="rounded=0;whiteSpace=wrap;html=1;align=left;dashed=1;dashPattern=8 8;verticalAlign=bottom;fillColor=#CCCCCC;" parent="cFaB45KztUIKXS-_cTrr-14" vertex="1">
          <mxGeometry x="1321" y="378" width="160" height="46" as="geometry" />
        </mxCell>
      </root>
    </mxGraphModel>
  </diagram>
</mxfile>
